<?xml version="1.0" encoding="UTF-8"?><svg id="Capa_1" xmlns="http://www.w3.org/2000/svg" width="573" height="200" viewBox="0 0 573 200"><defs><style>.cls-1,.cls-2{fill:#fff;}.cls-2{fill-rule:evenodd;}.cls-3{fill:lime;}</style></defs><path class="cls-2" d="M363.28,91.3c.36-1.73.83-3.42,1.35-5.12-.54,1.67-1.01,3.38-1.35,5.12ZM364.47,118.18c.77,2.6,1.77,5.14,2.94,7.57l.06-.1c-1.19-2.4-2.2-4.89-3-7.47ZM370.5,73.84l3.18-4.45c-1.15,1.43-2.22,2.92-3.18,4.45ZM415.31,127.56c-13.82,0-25.04-11.22-25.04-25.02,0-.62.02-1.25.08-1.87l-20.73,28.91c7.43,12.39,19.78,21.63,34.12,24.88h.02s20.4-28.52,20.4-28.52c-2.76,1.05-5.74,1.63-8.86,1.63ZM460.76,74.85c-7.67-12.59-20.24-21.33-34.42-24.35l-20.77,28.99c3-1.27,6.28-1.97,9.75-1.97,13.8,0,25.04,11.22,25.04,25.04,0,.28,0,.54-.02.83l20.43-28.52ZM510.91,49.33c-18.89,0-36.52,10.15-46.03,26.49l-.24.42-.32.54-.02.04-27.11,37.87-.06.08-3.18,4.47-.04.04-25.74,35.98-.02.02c.6.08,1.19.14,1.79.2.99.1,1.97.16,2.98.2.36.02.73.04,1.11.04.42.02.87.02,1.29.02,1.07,0,2.12-.04,3.16-.1.73-.02,1.41-.1,2.14-.16h.02c.87-.1,1.73-.2,2.6-.34.87-.12,1.73-.28,2.6-.46.42-.06.83-.16,1.23-.26,1.15-.24,2.28-.54,3.38-.89.54-.14,1.07-.32,1.61-.5.56-.18,1.13-.36,1.67-.58.44-.16.89-.32,1.31-.5,2.28-.91,4.49-1.95,6.61-3.18.79-.44,1.57-.93,2.36-1.41.77-.5,1.53-1.01,2.28-1.55.75-.52,1.47-1.09,2.2-1.65.77-.62,1.53-1.25,2.26-1.91.48-.42.97-.87,1.43-1.33.24-.2.46-.42.66-.64.1-.1.2-.18.28-.28.5-.48.99-.99,1.45-1.51l.02-.02,63.53-88.61c-2.36-.34-4.75-.5-7.19-.5ZM549.69,66.11c-7.43-7.94-16.82-13.25-27.15-15.51l-20.67,28.82c2.8-1.11,5.86-1.71,9.04-1.71,13.68,0,24.82,11.14,24.82,24.84,0,13.68-11.14,24.82-24.82,24.82-13.68,0-24.82-11.14-24.82-24.82,0-.4,0-.81.04-1.19l-20.69,28.84s.02.02.02.04c10.17,16.64,28.58,26.37,48.08,25.44,26.65-1.29,48.81-23.12,50.48-49.75.91-14.87-4.17-29.03-14.34-39.82Z"/><path class="cls-1" d="M455.08,3.52l-30.56,42.54-.73.99-.58.83-1.21,1.75-.08.12-54.45,75.9c-1.19-2.4-2.2-4.89-3-7.47-.06-.08-.08-.16-.08-.26-.16-.46-.3-.95-.4-1.45-.16-.46-.28-.93-.38-1.39-.14-.56-.28-1.15-.4-1.73-.12-.6-.24-1.21-.34-1.83-.08-.36-.14-.73-.18-1.09-.08-.56-.16-1.13-.22-1.69-.24-2.05-.36-4.11-.36-6.18,0-.68.02-1.35.04-2.01.02-.5.04-1.01.08-1.51,0-.22.02-.42.06-.62,0-.5.06-.99.12-1.47.06-.64.14-1.29.22-1.91s.18-1.25.3-1.85c.1-.62.22-1.25.36-1.85.36-1.73.83-3.42,1.35-5.12.06-.12.1-.26.14-.4.16-.56.36-1.11.58-1.65.2-.58.42-1.17.68-1.75.46-1.15.99-2.28,1.53-3.4.26-.56.54-1.11.87-1.65.32-.58.64-1.19.99-1.75.24-.44.5-.87.79-1.29.08-.14.16-.3.28-.44l3.18-4.45,7.09-9.93,3.63-5.08L420.71,3.52h34.36Z"/><path class="cls-1" d="M444.17,196.16h-2.5s-2.05-5.41-2.05-5.41h-8.19s-1.93,5.41-1.93,5.41h-2.52s7.41-19.31,7.41-19.31h2.34s7.43,19.31,7.43,19.31ZM438.88,188.71l-3.03-8.23c-.1-.27-.2-.7-.3-1.29h-.05c-.09.55-.19.98-.31,1.29l-3,8.23h6.69Z"/><path class="cls-1" d="M462.58,196.16h-2.77s-9.94-15.39-9.94-15.39c-.25-.39-.46-.79-.62-1.21h-.08c.07.41.11,1.3.11,2.65v13.95h-2.26v-19.31h2.94s9.67,15.15,9.67,15.15c.4.63.66,1.06.78,1.29h.05c-.09-.56-.13-1.5-.13-2.84v-13.6h2.26v19.31ZM459.47,171.87c0,.94-.22,1.71-.65,2.31s-1.01.89-1.75.89c-.64,0-1.36-.23-2.18-.7-.69-.39-1.23-.58-1.6-.58-.79,0-1.19.51-1.19,1.52h-1.27c0-.96.22-1.73.65-2.31.43-.58,1.03-.87,1.8-.87.58,0,1.25.23,2.01.7.66.4,1.24.59,1.72.59.75,0,1.13-.52,1.13-1.56h1.32Z"/><path class="cls-1" d="M475.43,196.48c-2.74,0-4.93-.9-6.58-2.71-1.65-1.8-2.47-4.15-2.47-7.04,0-3.11.84-5.58,2.52-7.43,1.68-1.85,3.96-2.77,6.85-2.77,2.67,0,4.81.9,6.44,2.69,1.63,1.8,2.44,4.14,2.44,7.04,0,3.15-.83,5.64-2.5,7.47-1.67,1.83-3.9,2.75-6.71,2.75ZM475.59,178.57c-2.03,0-3.68.73-4.94,2.2s-1.9,3.38-1.9,5.76.62,4.29,1.85,5.74c1.23,1.45,2.84,2.18,4.83,2.18,2.12,0,3.79-.69,5.01-2.07,1.22-1.38,1.83-3.32,1.83-5.8s-.59-4.52-1.78-5.91c-1.18-1.39-2.82-2.09-4.9-2.09Z"/><path class="cls-1" d="M487.53,195.37v-2.67c.31.27.67.51,1.1.73s.88.4,1.35.55c.47.15.95.26,1.42.34.48.08.92.12,1.32.12,1.39,0,2.43-.26,3.12-.78.69-.52,1.03-1.26,1.03-2.23,0-.52-.11-.97-.34-1.36-.23-.38-.55-.74-.95-1.06-.4-.32-.88-.62-1.43-.91-.55-.29-1.15-.6-1.78-.92-.67-.34-1.3-.69-1.89-1.04-.58-.35-1.09-.74-1.52-1.16-.43-.42-.77-.9-1.02-1.43-.25-.53-.37-1.16-.37-1.88,0-.88.19-1.65.58-2.3s.89-1.19,1.52-1.61c.63-.42,1.34-.74,2.15-.94s1.62-.31,2.46-.31c1.9,0,3.29.23,4.16.69v2.54c-1.14-.79-2.6-1.19-4.39-1.19-.49,0-.99.05-1.48.16s-.93.27-1.32.5c-.39.23-.7.53-.94.9-.24.37-.36.82-.36,1.35,0,.49.09.92.28,1.28.18.36.46.69.81.98s.8.58,1.31.86,1.11.58,1.78.91c.69.34,1.35.7,1.97,1.08.62.38,1.16.8,1.63,1.25.47.46.84.97,1.11,1.52.27.56.41,1.19.41,1.91,0,.95-.19,1.76-.56,2.42-.37.66-.88,1.2-1.51,1.61-.63.41-1.36.71-2.19.89-.83.18-1.7.28-2.61.28-.3,0-.68-.03-1.13-.07-.45-.05-.91-.12-1.37-.22-.47-.1-.91-.21-1.33-.35s-.75-.29-1-.46Z"/><path class="cls-2" d="M298.9,80.34l-3.32.07v18.44h-11.21v-53.44s21.26,0,21.26,0c10.59,0,17.01,7.3,17.01,17.55,0,8.18-3.97,14.96-11.69,16.72l5.38,7.84c1.31,1.82,1.8,2.24,3.93,2.24h3.48v9.31s-4.55.11-4.55.11c-5.62,0-8.1-.94-11.49-5.74l-8.79-13.13ZM295.58,55.8v14.33s9.57,0,9.57,0c4.46,0,6.27-3.12,6.27-7.23s-1.78-7.1-6.14-7.1h-9.71Z"/><path class="cls-2" d="M172.02,86.36h-17.96s-4.46,12.5-4.46,12.5h-11.96s20.05-53.44,20.05-53.44h10.71s20.05,53.44,20.05,53.44h-11.89s-4.53-12.5-4.53-12.5ZM157.7,76.11h10.58s-5.34-14.63-5.34-14.63l-5.24,14.63Z"/><path class="cls-2" d="M255.02,88.47l-12.65,7.3v3.09s34.22,0,34.22,0v-10.39s-21.56,0-21.56,0ZM242.37,45.41v6.61s11.21,6.47,11.21,6.47v-2.69h22.32s0-10.39,0-10.39h-33.53Z"/><polygon class="cls-2" points="128.38 55.8 128.38 98.86 117.24 98.86 117.24 55.8 102.47 55.8 102.47 45.42 143.07 45.42 143.07 55.8 128.38 55.8"/><polygon class="cls-2" points="74.72 88.47 97.73 88.47 97.73 98.86 63.51 98.86 63.51 45.42 97.04 45.42 97.04 55.8 74.72 55.8 74.72 67.39 94.22 67.39 94.22 77.64 74.72 77.64 74.72 88.47"/><path class="cls-2" d="M36.03,99.55c-15.23,0-27.17-12.37-27.17-27.51,0-15.01,11.59-27.31,26.76-27.31,8.7,0,17.41,4.45,21.9,12.02l1.01,1.7-10.19,5.04-.88-1.4c-2.48-3.95-7.26-6.15-11.84-6.15-9,0-15.47,7.43-15.47,16.23s6.52,16.09,15.54,16.09c4.39,0,8.74-1.74,11.46-5.26l.86-1.11,10.39,4.34-1.2,1.84c-4.66,7.17-12.62,11.48-21.17,11.48"/><path class="cls-2" d="M331.71,46.07c2.73,0,4.94,2.21,4.94,4.94s-2.21,4.94-4.94,4.94-4.94-2.21-4.94-4.94,2.21-4.94,4.94-4.94M331.71,44.73c3.47,0,6.28,2.81,6.28,6.28s-2.81,6.28-6.28,6.28-6.28-2.81-6.28-6.28,2.81-6.28,6.28-6.28Z"/><path class="cls-1" d="M331,49.02h.54c.75,0,1.1.27,1.1.88,0,.67-.35.96-1.01.96h-.63v-1.84ZM332.9,54.34h1.7s-1.62-2.71-1.62-2.71c.83-.39,1.22-.88,1.22-1.72,0-1.32-.89-1.94-2.62-1.94h-2.09s0,6.38,0,6.38h1.51s0-2.44,0-2.44h.59s1.31,2.44,1.31,2.44Z"/><path class="cls-2" d="M214.45,44.73c3.43,0,6.87.7,10.06,2.02v13.15c-2.63-2.56-6.41-3.96-10.06-3.96-9,0-15.47,7.43-15.47,16.23,0,8.87,6.52,16.1,15.54,16.1,3.67,0,7.3-1.22,9.99-3.69v13.04c-3,1.26-6.28,1.93-9.65,1.93-15.23,0-27.16-12.38-27.16-27.51,0-15.01,11.58-27.31,26.75-27.31Z"/><polygon class="cls-3" points="256.57 72.15 253.76 62.21 253.76 62.21 253.75 62.19 230.68 48.86 230.68 61.09 231.29 61.44 249.83 72.15 230.68 83.21 230.68 95.44 253.75 82.11 253.76 82.08 256.57 72.15"/><polygon class="cls-1" points="253.75 82.11 270.99 72.15 253.75 62.19 253.76 62.21 256.57 72.15 253.76 82.08 253.75 82.11"/></svg>